HIERARCHY
ROOT Hips
{
	OFFSET 0.000000 0.000000 0.000000
	CHANNELS 6 Xposition Yposition Zposition Zrotation Yrotation Xrotation 
	JOINT LHipJoint
	{
		OFFSET 0.000000 0.000000 0.000000
		CHANNELS 3 Zrotation Yrotation Xrotation
		JOINT LeftUpLeg
		{
			OFFSET 1.363060 -1.794630 0.839290
			CHANNELS 3 Zrotation Yrotation Xrotation
			JOINT LeftLeg
			{
				OFFSET 2.448110 -6.726130 0.000000
				CHANNELS 3 Zrotation Yrotation Xrotation
				JOINT LeftFoot
				{
					OFFSET 2.562200 -7.039590 0.000000
					CHANNELS 3 Zrotation Yrotation Xrotation
					JOINT LeftToeBase
					{
						OFFSET 0.157640 -0.433110 2.322550
						CHANNELS 3 Zrotation Yrotation Xrotation
						End Site
						{
							OFFSET 0.000000 0.000000 0.000000
						}
					}
				}
			}
		}
	}
	JOINT RHipJoint
	{
		OFFSET 0.000000 0.000000 0.000000
		CHANNELS 3 Zrotation Yrotation Xrotation
		JOINT RightUpLeg
		{
			OFFSET -1.305520 -1.794630 0.839290
			CHANNELS 3 Zrotation Yrotation Xrotation
			JOINT RightLeg
			{
				OFFSET -2.542530 -6.985550 0.000000
				CHANNELS 3 Zrotation Yrotation Xrotation
				JOINT RightFoot
				{
					OFFSET -2.568260 -7.056230 0.000000
					CHANNELS 3 Zrotation Yrotation Xrotation
					JOINT RightToeBase
					{
						OFFSET -0.164730 -0.452590 2.363150
						CHANNELS 3 Zrotation Yrotation Xrotation
						End Site
						{
							OFFSET 0.000000 0.000000 0.000000
						}
					}
				}
			}
		}
	}
	JOINT LowerBack
	{
		OFFSET 0.000000 0.000000 0.000000
		CHANNELS 3 Zrotation Yrotation Xrotation
		JOINT Spine
		{
			OFFSET 0.028270 2.035590 -0.193380
			CHANNELS 3 Zrotation Yrotation Xrotation
			JOINT Spine1
			{
				OFFSET 0.056720 2.048850 -0.042750
				CHANNELS 3 Zrotation Yrotation Xrotation
				JOINT Neck
				{
					OFFSET 0.000000 0.000000 0.000000
					CHANNELS 3 Zrotation Yrotation Xrotation
					JOINT Neck1
					{
						OFFSET -0.054170 1.746240 0.172020
						CHANNELS 3 Zrotation Yrotation Xrotation
						JOINT Head
						{
							OFFSET 0.104070 1.761360 -0.123970
							CHANNELS 3 Zrotation Yrotation Xrotation
							End Site
							{
								OFFSET 0.000000 0.000000 0.000000
							}
						}
					}
				}
				JOINT LeftShoulder
				{
					OFFSET 0.000000 0.000000 0.000000
					CHANNELS 3 Zrotation Yrotation Xrotation
					JOINT LeftArm
					{
						OFFSET 3.362410 1.200890 -0.311210
						CHANNELS 3 Zrotation Yrotation Xrotation
						JOINT LeftForeArm
						{
							OFFSET 4.983000 -0.000000 -0.000000
							CHANNELS 3 Zrotation Yrotation Xrotation
							JOINT LeftHand
							{
								OFFSET 3.483560 -0.000000 -0.000000
								CHANNELS 3 Zrotation Yrotation Xrotation
								JOINT LeftFingerBase
								{
									OFFSET 0.000000 0.000000 0.000000
									CHANNELS 3 Zrotation Yrotation Xrotation
									JOINT LeftHandIndex1
									{
										OFFSET 0.715260 -0.000000 -0.000000
										CHANNELS 3 Zrotation Yrotation Xrotation
										End Site
										{
											OFFSET 0.000000 0.000000 0.000000
										}
									}
								}
								JOINT LThumb
								{
									OFFSET 0.000000 0.000000 0.000000
									CHANNELS 3 Zrotation Yrotation Xrotation
									End Site
									{
										OFFSET 0.000000 0.000000 0.000000
									}
								}
							}
						}
					}
				}
				JOINT RightShoulder
				{
					OFFSET 0.000000 0.000000 0.000000
					CHANNELS 3 Zrotation Yrotation Xrotation
					JOINT RightArm
					{
						OFFSET -3.136600 1.374050 -0.404650
						CHANNELS 3 Zrotation Yrotation Xrotation
						JOINT RightForeArm
						{
							OFFSET -5.241900 -0.000000 -0.000000
							CHANNELS 3 Zrotation Yrotation Xrotation
							JOINT RightHand
							{
								OFFSET -3.444170 -0.000000 -0.000000
								CHANNELS 3 Zrotation Yrotation Xrotation
								JOINT RightFingerBase
								{
									OFFSET 0.000000 0.000000 0.000000
									CHANNELS 3 Zrotation Yrotation Xrotation
									JOINT RightHandIndex1
									{
										OFFSET -0.622530 -0.000000 -0.000000
										CHANNELS 3 Zrotation Yrotation Xrotation
										End Site
										{
											OFFSET 0.000000 0.000000 0.000000
										}
									}
								}
								JOINT RThumb
								{
									OFFSET 0.000000 0.000000 0.000000
									CHANNELS 3 Zrotation Yrotation Xrotation
									End Site
									{
										OFFSET 0.000000 0.000000 0.000000
									}
								}
							}
						}
					}
				}
			}
		}
	}
}
MOTION
Frames: 10
Frame Time: 0.008333
-30.753081 17.407001 2.589332 121.721898 85.930686 113.092612 0.874402 -0.664647 0.673008 -11.189494 2.358811 10.781776 -1.431600 3.840449 10.534560 -0.238837 3.555812 -7.036506 0.992300 -6.339900 -17.773900 -5.072738 5.766378 -7.320208 18.684422 -15.034965 19.985323 -0.037499 -4.180080 6.574057 -0.467349 -2.600387 -17.565326 -0.232800 -3.105600 8.572800 0.600735 0.851515 9.787801 -0.145715 1.204477 -1.724049 -1.181852 0.479823 5.885110 0.921395 0.004319 -17.886410 7.696284 -0.231491 13.004200 1.803500 0.904400 13.156800 4.377554 -0.655664 0.875320 -1.168772 0.407769 -0.013546 -2.228619 -0.515722 -0.000136 -0.159672 -0.038514 -0.000068 -0.159672 -0.038515 -0.000000 0.000000 0.000000 0.000000 0.000000 0.000000 0.000000 -5.928954 1.458832 1.405850 87.162942 -2.327605 33.771011 -16.653762 32.774968 -4.738624 0.470102 -2.657810 4.198932 -12.278030 -35.242353 7.059400 7.125000 0.000000 0.000000 22.813900 -61.668400 -9.527700 
-30.751122 17.404218 2.600364 119.089794 86.223437 110.463410 0.921391 -0.624272 0.684839 -11.077178 2.310112 10.860763 -1.436547 3.825343 10.509467 -0.266311 3.778249 -7.289332 0.890500 -6.015000 -16.827900 -5.044675 5.752526 -7.311028 19.039669 -14.740098 19.876461 -0.043384 -4.242667 6.748274 -0.474273 -2.546212 -17.595470 -0.240300 -3.154700 8.709800 0.532130 0.881566 9.839735 -0.057476 1.226797 -1.772601 -0.667092 0.450893 5.674924 0.689492 0.074766 -17.673747 7.611214 -0.034051 13.097902 1.810600 0.951800 13.170700 4.402980 -0.682576 0.887448 -1.114007 0.423631 -0.013772 -2.245136 -0.518965 -0.000139 -0.162118 -0.039015 -0.000069 -0.162118 -0.039015 -0.000000 0.000000 0.000000 0.000000 0.000000 0.000000 0.000000 -5.879535 1.454284 1.386527 86.718843 -2.376302 33.939853 -16.471150 32.475150 -4.644795 0.452086 -2.614460 4.345444 -12.431668 -34.605776 7.021000 7.125000 0.000000 0.000000 22.151300 -61.163300 -8.969500 
-30.751019 17.396794 2.610571 118.876123 86.242656 110.422111 0.905206 -0.627571 0.686187 -11.233408 1.788955 10.896321 -1.472085 3.812432 10.452295 -0.315909 4.160676 -7.622414 0.824400 -5.793200 -16.185400 -5.058603 5.743568 -7.287513 19.027730 -14.823472 19.565783 -0.055530 -4.284677 6.857478 -0.495094 -2.246689 -17.516983 -0.264800 -3.310100 9.143300 0.419345 0.823203 9.659031 -0.015000 1.129604 -1.807542 -0.394201 0.379031 5.603271 0.507349 0.080464 -17.438492 7.662047 0.055486 13.159767 1.886700 0.976100 13.139800 4.400854 -0.681027 0.885331 -1.091032 0.425940 -0.013804 -2.252716 -0.520929 -0.000139 -0.163231 -0.039264 -0.000070 -0.163231 -0.039264 -0.000000 0.000000 0.000000 0.000000 0.000000 0.000000 0.000000 -5.862664 1.450365 1.379869 86.436257 -2.429140 34.227563 -16.466699 32.416697 -4.621032 0.456263 -2.587509 4.315001 -12.377067 -34.252601 6.927900 7.125000 0.000000 0.000000 21.935400 -60.853500 -8.715100 
-30.750709 17.391948 2.618613 118.739111 86.081253 110.290680 0.909023 -0.645183 0.674322 -11.451809 1.631654 10.873843 -1.475950 3.877713 10.600729 -0.327824 4.251257 -7.678313 0.888400 -6.008200 -16.808200 -5.034575 5.768085 -7.291566 18.764165 -14.955440 19.586939 -0.058591 -4.275436 6.838129 -0.493400 -2.174467 -17.391047 -0.261900 -3.292400 9.093800 0.352767 0.809333 9.576244 -0.045950 1.112216 -1.783705 -0.475928 0.374122 5.692770 0.391678 0.080979 -17.303606 7.894806 0.110633 13.187207 2.071500 1.014500 13.095300 4.373831 -0.646721 0.870304 -1.108740 0.419682 -0.013638 -2.247963 -0.520163 -0.000137 -0.162509 -0.039125 -0.000069 -0.162509 -0.039125 -0.000000 0.000000 0.000000 0.000000 0.000000 0.000000 0.000000 -5.894564 1.457789 1.394142 86.510636 -2.377464 34.140555 -16.498463 32.484458 -4.639506 0.456676 -2.593743 4.309920 -12.365292 -34.315918 6.933100 7.125000 0.000000 0.000000 21.994600 -60.903100 -8.766000 
-30.757308 17.414837 2.619335 115.416108 86.203854 106.214873 1.036230 -0.607953 0.642286 -11.917194 1.504079 11.829111 -1.500041 3.868694 10.579688 -0.400348 4.796399 -8.045367 1.007300 -6.386200 -17.909300 -4.901077 5.886749 -7.334863 18.064140 -15.477021 20.160501 -0.064363 -4.375886 7.114954 -0.516181 -1.603311 -17.003354 -0.263000 -3.299300 9.113300 0.644248 0.890671 10.420034 -0.106155 1.286674 -1.693009 -0.757820 0.487048 5.598696 -0.000264 0.046989 -17.150582 8.486993 0.220911 13.180903 2.570400 1.082300 13.038200 4.322649 -0.596502 0.857983 -1.167799 0.432369 -0.013552 -2.231123 -0.513960 -0.000136 -0.159990 -0.038487 -0.000068 -0.159990 -0.038487 -0.000000 0.000000 0.000000 0.000000 0.000000 0.000000 0.000000 -5.974778 1.530990 1.430119 86.771969 -2.244611 33.702585 -16.466036 32.513073 -4.652505 0.432159 -2.613384 4.483868 -12.709772 -34.327707 7.110400 7.125000 0.000000 0.000000 21.634000 -60.971300 -8.649500 
-30.756483 17.413806 2.629026 116.337868 86.410932 107.084372 1.037454 -0.579787 0.644657 -11.557414 1.579271 11.874317 -1.485125 3.837054 10.538577 -0.393038 4.717064 -7.944208 1.035900 -6.473300 -18.164100 -4.938640 5.862928 -7.350782 18.480843 -15.390665 20.237251 -0.054718 -4.362736 7.052803 -0.507446 -1.733616 -17.049842 -0.277100 -3.385900 9.355000 1.057166 0.919851 10.412574 -0.135368 1.359610 -1.661062 -1.022758 0.543366 5.680130 -0.459685 0.073458 -17.079570 9.227528 0.453316 13.273819 3.200300 1.215200 13.033500 4.271544 -0.518038 0.829074 -1.225902 0.426836 -0.013336 -2.216246 -0.510185 -0.000133 -0.157728 -0.037989 -0.000066 -0.157728 -0.037989 -0.000000 0.000000 0.000000 0.000000 0.000000 0.000000 0.000000 -6.065676 1.586269 1.451718 87.063473 -2.132986 33.338716 -16.419845 32.547023 -4.655701 0.396246 -2.626903 4.681634 -13.199964 -34.079898 7.309000 7.125000 0.000000 0.000000 20.918400 -60.837100 -8.281600 
-30.754627 17.414116 2.639646 116.625499 86.419578 107.370643 1.048324 -0.571802 0.641118 -11.464140 1.629890 11.874112 -1.482870 3.817174 10.494727 -0.395479 4.714222 -7.877194 1.083900 -6.616900 -18.585300 -4.935231 5.859164 -7.360483 18.597187 -15.308096 20.306531 -0.048725 -4.338199 6.982553 -0.501397 -1.879175 -17.146302 -0.263500 -3.302200 9.121300 1.291163 0.960083 10.341101 -0.194715 1.431560 -1.632157 -1.388965 0.611476 5.796120 -0.526336 0.028692 -17.083501 9.559273 0.429397 13.323323 3.445500 1.240300 13.047200 4.241796 -0.468278 0.809532 -1.275329 0.415803 -0.013142 -2.202295 -0.507264 -0.000131 -0.155664 -0.037558 -0.000065 -0.155664 -0.037558 -0.000000 0.000000 0.000000 0.000000 0.000000 0.000000 0.000000 -6.131174 1.612055 1.466459 87.425443 -2.048156 33.043561 -16.403995 32.617066 -4.668197 0.374270 -2.647232 4.853384 -13.454651 -33.989977 7.417000 7.125000 0.000000 0.000000 20.567500 -60.790600 -8.112900 
-30.750503 17.415868 2.648513 116.956529 86.379271 107.652598 1.044385 -0.571819 0.637174 -11.543449 1.479462 12.048235 -1.499878 3.778197 10.388201 -0.422161 4.894561 -7.938579 1.138800 -6.777000 -19.056500 -4.941078 5.861217 -7.363622 18.583317 -15.372104 20.376977 -0.045392 -4.335472 6.970327 -0.505457 -1.878907 -17.212840 -0.259000 -3.274200 9.043000 1.265736 0.906735 10.316892 -0.189601 1.360464 -1.619642 -1.372105 0.572435 5.864977 -0.517835 0.009797 -17.138147 9.557891 0.403870 13.420489 3.448400 1.235900 13.126100 4.236666 -0.460666 0.804647 -1.272563 0.411616 -0.013093 -2.202489 -0.507842 -0.000130 -0.155711 -0.037589 -0.000065 -0.155711 -0.037589 -0.000000 0.000000 0.000000 0.000000 0.000000 0.000000 0.000000 -6.126758 1.605625 1.465178 87.411161 -2.046492 33.115864 -16.473073 32.691848 -4.692439 0.373807 -2.644652 4.978589 -13.433890 -34.011363 7.413800 7.125000 0.000000 0.000000 20.604400 -60.809900 -8.137700 
-30.746895 17.414528 2.658204 118.457386 86.538676 109.112728 1.004352 -0.556101 0.649739 -11.297037 1.331032 12.196286 -1.502388 3.729990 10.295467 -0.430506 4.953222 -8.013704 1.104000 -6.676000 -18.759100 -5.016409 5.834723 -7.355209 18.832007 -15.569961 20.302406 -0.042028 -4.369118 7.026705 -0.513100 -1.754388 -17.193351 -0.260400 -3.283000 9.067800 1.320813 0.801239 10.369200 -0.116297 1.221032 -1.644888 -1.085726 0.474523 5.757589 -0.726596 0.051817 -17.051238 9.609109 0.549917 13.529103 3.545800 1.280200 13.172300 4.240809 -0.472392 0.809092 -1.249036 0.417854 -0.013196 -2.210128 -0.509457 -0.000131 -0.156810 -0.037819 -0.000066 -0.156810 -0.037819 -0.000000 0.000000 0.000000 0.000000 0.000000 0.000000 0.000000 -6.095071 1.610815 1.457066 87.133706 -2.178995 33.344313 -16.580583 32.748067 -4.719245 0.380220 -2.623931 5.086244 -13.376329 -33.974577 7.384500 7.125000 0.000000 0.000000 20.644600 -60.785200 -8.142200 
-30.746070 17.411538 2.669546 120.569270 86.741953 111.244922 0.924695 -0.541677 0.701734 -10.809692 1.393981 12.054396 -1.474172 3.742284 10.389171 -0.412633 4.815454 -7.976382 1.075200 -6.591300 -18.510000 -5.127059 5.768537 -7.303376 19.249631 -15.680155 20.079383 -0.039752 -4.413641 7.115522 -0.509422 -1.735792 -17.133462 -0.217800 -3.004200 8.290500 1.267916 0.687033 10.659551 0.015797 1.048224 -1.807544 -0.652303 0.359664 5.119042 -0.036996 0.027136 -16.868923 8.557725 0.287861 13.732005 2.673200 1.146500 13.394300 4.341141 -0.621440 0.869400 -1.159702 0.438802 -0.013944 -2.235355 -0.514748 -0.000140 -0.160569 -0.038583 -0.000070 -0.160569 -0.038583 -0.000000 0.000000 0.000000 0.000000 0.000000 0.000000 0.000000 -5.938071 1.592887 1.392978 86.676069 -2.777568 33.857843 -16.774286 32.781709 -4.755821 0.397080 -2.587853 5.057115 -13.395231 -33.914794 7.396100 7.125000 0.000000 0.000000 20.592900 -60.770500 -8.113500 
